<svg width="44" height="56" viewBox="0 0 44 56" fill="none" xmlns="http://www.w3.org/2000/svg">
<path d="M22 33.9125C23.6958 33.9125 25.1396 33.3281 26.3312 32.1594C27.5229 30.9906 28.1188 29.5354 28.1188 27.7938C28.1188 26.0979 27.5229 24.6542 26.3312 23.4625C25.1396 22.2708 23.6958 21.675 22 21.675C20.3042 21.675 18.8604 22.2708 17.6688 23.4625C16.4771 24.6542 15.8812 26.0979 15.8812 27.7938C15.8812 29.5354 16.4771 30.9906 17.6688 32.1594C18.8604 33.3281 20.3042 33.9125 22 33.9125ZM22 51.2375C24.1542 50.5042 26.3542 49.3469 28.6 47.7656C30.8458 46.1844 32.6562 44.3854 34.0312 42.3688L27.7062 36.3187C26.8354 36.8229 25.9187 37.2354 24.9562 37.5563C23.9937 37.8771 23.0083 38.0375 22 38.0375C19.1583 38.0375 16.7406 37.0521 14.7469 35.0812C12.7531 33.1104 11.7562 30.6812 11.7562 27.7938C11.7562 24.9521 12.7531 22.5344 14.7469 20.5406C16.7406 18.5469 19.1583 17.55 22 17.55C24.8417 17.55 27.2594 18.5469 29.2531 20.5406C31.2469 22.5344 32.2438 24.975 32.2438 27.8625C32.2438 28.825 32.1063 29.7875 31.8312 30.75C31.5562 31.7125 31.1208 32.5833 30.525 33.3625L36.3 38.8625C37.4 36.8917 38.2708 34.726 38.9125 32.3656C39.5542 30.0052 39.875 27.5875 39.875 25.1125V11.5L22 4.96875L4.125 11.5V25.1125C4.125 31.1167 5.78646 36.5365 9.10938 41.3719C12.4323 46.2073 16.7292 49.4958 22 51.2375ZM22 55.5C15.5833 53.8958 10.3125 50.1719 6.1875 44.3281C2.0625 38.4844 0 32.0792 0 25.1125V8.75L22 0.5L44 8.75V25.1125C44 32.0792 41.9375 38.4844 37.8125 44.3281C33.6875 50.1719 28.4167 53.8958 22 55.5Z" fill="url(#paint0_linear_7_486)"/>
<defs>
<linearGradient id="paint0_linear_7_486" x1="-0.806667" y1="2.86357" x2="53.9362" y2="18.4304" gradientUnits="userSpaceOnUse">
<stop stop-color="#009AAF"/>
<stop offset="1" stop-color="#006FAF"/>
</linearGradient>
</defs>
</svg>
